<svg width="42" height="45" viewBox="0 0 42 45" fill="none" xmlns="http://www.w3.org/2000/svg">
<path d="M0.364658 9.31255C3.03085 5.70695 6.73011 2.95575 10.9946 1.40686C15.2592 -0.142025 19.8975 -0.419041 24.3229 0.610847C28.7484 1.64074 32.7623 3.93127 35.8571 7.19281C38.9518 10.4543 40.9884 14.5404 41.7093 18.9342C42.4303 23.3281 41.8031 27.8324 39.9072 31.8775C38.0113 35.9227 34.9318 39.327 31.058 41.66C27.1843 43.993 22.6904 45.1499 18.1446 44.9844C13.5988 44.8189 9.20522 43.3385 5.5195 40.7302L9.51548 35.3263C12.1087 37.1614 15.1999 38.203 18.3982 38.3194C21.5965 38.4359 24.7583 37.6219 27.4837 35.9805C30.2092 34.339 32.3758 31.9438 33.7097 29.0978C35.0437 26.2517 35.4849 23.0826 34.9777 19.9912C34.4705 16.8998 33.0376 14.025 30.8602 11.7303C28.6828 9.43554 25.8587 7.82398 22.7451 7.09938C19.6314 6.37477 16.3681 6.56968 13.3676 7.65943C10.3672 8.74919 7.76453 10.6849 5.88867 13.2217L0.364658 9.31255Z" fill="#C0D2A8"/>
</svg>
