<svg width="42" height="45" viewBox="0 0 42 45" fill="none" xmlns="http://www.w3.org/2000/svg">
<path d="M41.6353 35.6875C38.9692 39.293 35.2699 42.0442 31.0054 43.5931C26.7408 45.142 22.1025 45.419 17.6771 44.3892C13.2516 43.3593 9.2377 41.0687 6.14295 37.8072C3.04819 34.5457 1.01158 30.4596 0.290667 26.0658C-0.43025 21.6719 0.196901 17.1676 2.09281 13.1225C3.98873 9.07733 7.06825 5.67299 10.942 3.33998C14.8157 1.00697 19.3096 -0.149936 23.8554 0.0155658C28.4012 0.181067 32.7948 1.66154 36.4805 4.26977L32.4845 9.6737C29.8913 7.83861 26.8001 6.79699 23.6018 6.68055C20.4035 6.56411 17.2417 7.37807 14.5163 9.01952C11.7908 10.661 9.62417 13.0562 8.29026 15.9022C6.95635 18.7483 6.5151 21.9174 7.02232 25.0088C7.52954 28.1002 8.96244 30.975 11.1398 33.2697C13.3172 35.5645 16.1413 37.176 19.2549 37.9006C22.3686 38.6252 25.6319 38.4303 28.6324 37.3406C31.6328 36.2508 34.2355 34.3151 36.1113 31.7783L41.6353 35.6875Z" fill="#BCA15B"/>
</svg>
